#N canvas -8 -8 1366 685 12;
#X obj 105 265 *~ 2;
#X obj 105 289 -~ 1;
#X obj 101 326 *~ 0.2;
#X obj 243 271 *~ 2;
#X obj 243 296 -~ 1;
#X obj 241 338 *~ 0.2;
#X obj 384 295 *~ 2;
#X obj 384 323 -~ 1;
#X obj 389 367 *~ 0.2;
#X obj 521 284 *~ 2;
#X obj 521 311 -~ 1;
#X obj 526 348 *~ 0.2;
#X obj 693 301 *~ 2;
#X obj 693 331 -~ 1;
#X obj 694 366 *~ 0.2;
#X floatatom 105 123 5 0 0 0 - - -;
#X obj 101 52 metro 100;
#X obj 104 20 tgl 15 0 empty empty empty 17 7 0 10 -262144 -1 -1 0
1;
#X obj 105 146 - 5;
#X floatatom 105 194 5 0 0 0 - - -;
#X obj 242 95 random 10;
#X floatatom 242 119 5 0 0 0 - - -;
#X obj 242 142 - 5;
#X floatatom 242 190 5 0 0 0 - - -;
#X obj 384 101 random 10;
#X floatatom 384 129 5 0 0 0 - - -;
#X obj 384 156 - 5;
#X floatatom 384 212 5 0 0 0 - - -;
#X obj 521 97 random 10;
#X floatatom 521 124 5 0 0 0 - - -;
#X obj 521 150 - 5;
#X floatatom 521 204 5 0 0 0 - - -;
#X obj 693 93 random 10;
#X floatatom 693 123 5 0 0 0 - - -;
#X obj 693 152 - 5;
#X floatatom 693 212 5 0 0 0 - - -;
#X obj 105 217 sig~;
#X obj 243 214 sig~;
#X obj 384 239 sig~;
#X obj 521 230 sig~;
#X obj 693 241 sig~;
#X obj 105 99 random 10;
#X floatatom 457 19 5 0 0 0 - - -;
#X obj 752 33 / 2;
#X obj 384 267 phasor~ 100;
#X obj 242 243 phasor~ 95;
#X obj 105 241 phasor~ 90;
#X obj 523 257 phasor~ 105;
#X obj 693 271 phasor~ 110;
#X obj 105 170 + 100;
#X obj 242 166 + 100;
#X obj 384 184 + 100;
#X obj 521 177 + 100;
#X obj 693 182 + 100;
#X obj 926 283 *~ 2;
#X obj 926 307 -~ 1;
#X obj 922 344 *~ 0.2;
#X obj 1064 289 *~ 2;
#X obj 1064 314 -~ 1;
#X obj 1071 350 *~ 0.2;
#X obj 1205 313 *~ 2;
#X obj 1205 341 -~ 1;
#X obj 1207 371 *~ 0.2;
#X obj 1342 302 *~ 2;
#X obj 1342 329 -~ 1;
#X obj 1341 367 *~ 0.2;
#X obj 1514 319 *~ 2;
#X obj 1514 349 -~ 1;
#X obj 1512 385 *~ 0.2;
#X floatatom 926 141 5 0 0 0 - - -;
#X obj 922 70 metro 100;
#X obj 922 28 tgl 15 0 empty empty empty 17 7 0 10 -262144 -1 -1 0
1;
#X obj 926 164 - 5;
#X floatatom 926 212 5 0 0 0 - - -;
#X obj 1063 113 random 10;
#X floatatom 1063 137 5 0 0 0 - - -;
#X obj 1063 160 - 5;
#X floatatom 1063 208 5 0 0 0 - - -;
#X obj 1205 119 random 10;
#X floatatom 1205 147 5 0 0 0 - - -;
#X obj 1205 174 - 5;
#X floatatom 1205 230 5 0 0 0 - - -;
#X obj 1342 115 random 10;
#X floatatom 1342 142 5 0 0 0 - - -;
#X obj 1342 168 - 5;
#X floatatom 1342 222 5 0 0 0 - - -;
#X obj 1514 111 random 10;
#X floatatom 1514 141 5 0 0 0 - - -;
#X obj 1514 170 - 5;
#X floatatom 1514 230 5 0 0 0 - - -;
#X obj 926 235 sig~;
#X obj 1064 232 sig~;
#X obj 1205 257 sig~;
#X obj 1342 248 sig~;
#X obj 1514 259 sig~;
#X obj 926 117 random 10;
#X floatatom 1271 40 5 0 0 0 - - -;
#X obj 1606 93 / 2;
#X obj 1205 285 phasor~ 200;
#X obj 1344 275 phasor~ 205;
#X obj 1514 289 phasor~ 210;
#X obj 1063 261 phasor~ 195;
#X obj 926 259 phasor~ 190;
#X obj 926 188 + 200;
#X obj 1063 184 + 200;
#X obj 1205 202 + 200;
#X obj 1341 195 + 200;
#X obj 1516 200 + 200;
#X obj 51 814 *~ 2;
#X obj 51 838 -~ 1;
#X obj 47 875 *~ 0.2;
#X obj 189 820 *~ 2;
#X obj 189 845 -~ 1;
#X obj 196 881 *~ 0.2;
#X obj 330 844 *~ 2;
#X obj 330 872 -~ 1;
#X obj 332 902 *~ 0.2;
#X obj 467 833 *~ 2;
#X obj 467 860 -~ 1;
#X obj 464 888 *~ 0.2;
#X obj 639 850 *~ 2;
#X obj 639 880 -~ 1;
#X obj 637 916 *~ 0.2;
#X floatatom 51 672 5 0 0 0 - - -;
#X obj 47 601 metro 100;
#X obj 50 571 tgl 15 0 empty empty empty 17 7 0 10 -262144 -1 -1 0
1;
#X obj 51 695 - 5;
#X floatatom 51 743 5 0 0 0 - - -;
#X obj 188 644 random 10;
#X floatatom 188 668 5 0 0 0 - - -;
#X obj 188 691 - 5;
#X floatatom 188 739 5 0 0 0 - - -;
#X obj 330 650 random 10;
#X floatatom 330 678 5 0 0 0 - - -;
#X obj 330 705 - 5;
#X floatatom 330 761 5 0 0 0 - - -;
#X obj 467 646 random 10;
#X floatatom 467 673 5 0 0 0 - - -;
#X obj 467 699 - 5;
#X floatatom 467 753 5 0 0 0 - - -;
#X obj 639 642 random 10;
#X floatatom 639 672 5 0 0 0 - - -;
#X obj 639 701 - 5;
#X floatatom 639 761 5 0 0 0 - - -;
#X obj 51 766 sig~;
#X obj 189 763 sig~;
#X obj 330 788 sig~;
#X obj 467 779 sig~;
#X obj 639 790 sig~;
#X obj 51 648 random 10;
#X floatatom 403 568 5 0 0 0 - - -;
#X obj 731 624 / 2;
#X obj 51 719 + 400;
#X obj 188 715 + 400;
#X obj 330 733 + 400;
#X obj 466 726 + 400;
#X obj 641 731 + 400;
#X obj 51 790 phasor~ 390;
#X obj 188 792 phasor~ 395;
#X obj 330 816 phasor~ 400;
#X obj 467 806 phasor~ 405;
#X obj 639 820 phasor~ 410;
#X obj 982 708 dac~;
#X obj 672 486 *~;
#X obj 741 449 tgl 15 0 empty empty empty 17 7 0 10 -262144 -1 -1 0
1;
#X obj 1172 473 *~;
#X obj 1240 437 tgl 15 0 empty empty empty 17 7 0 10 -262144 -1 -1
0 1;
#X obj 513 1005 *~;
#X obj 561 969 tgl 15 0 empty empty empty 17 7 0 10 -262144 -1 -1 0
1;
#X obj 1309 737 *~ 2;
#X obj 1309 761 -~ 1;
#X obj 1305 798 *~ 0.2;
#X obj 1447 743 *~ 2;
#X obj 1447 768 -~ 1;
#X obj 1454 804 *~ 0.2;
#X obj 1588 767 *~ 2;
#X obj 1588 795 -~ 1;
#X obj 1590 825 *~ 0.2;
#X obj 1725 756 *~ 2;
#X obj 1725 783 -~ 1;
#X obj 1724 821 *~ 0.2;
#X obj 1897 773 *~ 2;
#X obj 1897 803 -~ 1;
#X obj 1895 839 *~ 0.2;
#X floatatom 1309 595 5 0 0 0 - - -;
#X obj 1305 524 metro 100;
#X obj 1305 482 tgl 15 0 empty empty empty 17 7 0 10 -262144 -1 -1
0 1;
#X obj 1309 618 - 5;
#X floatatom 1309 666 5 0 0 0 - - -;
#X obj 1446 567 random 10;
#X floatatom 1446 591 5 0 0 0 - - -;
#X obj 1446 614 - 5;
#X floatatom 1446 662 5 0 0 0 - - -;
#X obj 1588 573 random 10;
#X floatatom 1588 601 5 0 0 0 - - -;
#X obj 1588 628 - 5;
#X floatatom 1588 684 5 0 0 0 - - -;
#X obj 1725 569 random 10;
#X floatatom 1725 596 5 0 0 0 - - -;
#X obj 1725 622 - 5;
#X floatatom 1725 676 5 0 0 0 - - -;
#X obj 1897 565 random 10;
#X floatatom 1897 595 5 0 0 0 - - -;
#X obj 1897 624 - 5;
#X floatatom 1897 684 5 0 0 0 - - -;
#X obj 1309 689 sig~;
#X obj 1447 686 sig~;
#X obj 1588 711 sig~;
#X obj 1725 702 sig~;
#X obj 1897 713 sig~;
#X obj 1309 571 random 10;
#X floatatom 1661 491 5 0 0 0 - - -;
#X obj 1989 547 / 2;
#X obj 1548 946 *~;
#X obj 1625 902 tgl 15 0 empty empty empty 17 7 0 10 -262144 -1 -1
0 1;
#X obj 1588 739 phasor~ 800;
#X obj 1446 715 phasor~ 795;
#X obj 1309 713 phasor~ 790;
#X obj 1727 729 phasor~ 805;
#X obj 1897 743 phasor~ 810;
#X obj 1171 434 *~ 0.25;
#X obj 672 449 *~ 0.25;
#X obj 490 972 *~ 0.25;
#X obj 1541 900 *~ 0.25;
#X obj 1309 642 + 800;
#X obj 1446 638 + 800;
#X obj 1588 657 + 800;
#X obj 1724 649 + 800;
#X obj 1899 654 + 800;
#X connect 0 0 1 0;
#X connect 1 0 2 0;
#X connect 2 0 221 0;
#X connect 3 0 4 0;
#X connect 4 0 5 0;
#X connect 5 0 221 0;
#X connect 6 0 7 0;
#X connect 7 0 8 0;
#X connect 8 0 221 0;
#X connect 9 0 10 0;
#X connect 10 0 11 0;
#X connect 11 0 221 0;
#X connect 12 0 13 0;
#X connect 13 0 14 0;
#X connect 14 0 221 0;
#X connect 15 0 18 0;
#X connect 16 0 20 0;
#X connect 16 0 24 0;
#X connect 16 0 28 0;
#X connect 16 0 32 0;
#X connect 16 0 41 0;
#X connect 17 0 16 0;
#X connect 18 0 49 0;
#X connect 19 0 36 0;
#X connect 20 0 21 0;
#X connect 21 0 22 0;
#X connect 22 0 50 0;
#X connect 23 0 37 0;
#X connect 24 0 25 0;
#X connect 25 0 26 0;
#X connect 26 0 51 0;
#X connect 27 0 38 0;
#X connect 28 0 29 0;
#X connect 29 0 30 0;
#X connect 30 0 52 0;
#X connect 31 0 39 0;
#X connect 32 0 33 0;
#X connect 33 0 34 0;
#X connect 34 0 53 0;
#X connect 35 0 40 0;
#X connect 36 0 46 0;
#X connect 37 0 45 0;
#X connect 38 0 44 0;
#X connect 39 0 47 0;
#X connect 40 0 48 0;
#X connect 41 0 15 0;
#X connect 42 0 41 1;
#X connect 42 0 20 1;
#X connect 42 0 24 1;
#X connect 42 0 28 1;
#X connect 42 0 32 1;
#X connect 42 0 43 0;
#X connect 43 0 18 1;
#X connect 43 0 22 1;
#X connect 43 0 26 1;
#X connect 43 0 30 1;
#X connect 43 0 34 1;
#X connect 44 0 6 0;
#X connect 45 0 3 0;
#X connect 46 0 0 0;
#X connect 47 0 9 0;
#X connect 48 0 12 0;
#X connect 49 0 19 0;
#X connect 50 0 23 0;
#X connect 51 0 27 0;
#X connect 52 0 31 0;
#X connect 53 0 35 0;
#X connect 54 0 55 0;
#X connect 55 0 56 0;
#X connect 56 0 220 0;
#X connect 57 0 58 0;
#X connect 58 0 59 0;
#X connect 59 0 220 0;
#X connect 60 0 61 0;
#X connect 61 0 62 0;
#X connect 62 0 220 0;
#X connect 63 0 64 0;
#X connect 64 0 65 0;
#X connect 65 0 220 0;
#X connect 66 0 67 0;
#X connect 67 0 68 0;
#X connect 68 0 220 0;
#X connect 69 0 72 0;
#X connect 70 0 74 0;
#X connect 70 0 78 0;
#X connect 70 0 82 0;
#X connect 70 0 86 0;
#X connect 70 0 95 0;
#X connect 71 0 70 0;
#X connect 72 0 103 0;
#X connect 73 0 90 0;
#X connect 74 0 75 0;
#X connect 75 0 76 0;
#X connect 76 0 104 0;
#X connect 77 0 91 0;
#X connect 78 0 79 0;
#X connect 79 0 80 0;
#X connect 80 0 105 0;
#X connect 81 0 92 0;
#X connect 82 0 83 0;
#X connect 83 0 84 0;
#X connect 84 0 106 0;
#X connect 85 0 93 0;
#X connect 86 0 87 0;
#X connect 87 0 88 0;
#X connect 88 0 107 0;
#X connect 89 0 94 0;
#X connect 90 0 102 0;
#X connect 91 0 101 0;
#X connect 92 0 98 0;
#X connect 93 0 99 0;
#X connect 94 0 100 0;
#X connect 95 0 69 0;
#X connect 96 0 95 1;
#X connect 96 0 74 1;
#X connect 96 0 78 1;
#X connect 96 0 82 1;
#X connect 96 0 86 1;
#X connect 96 0 97 0;
#X connect 97 0 72 1;
#X connect 97 0 76 1;
#X connect 97 0 80 1;
#X connect 97 0 84 1;
#X connect 97 0 88 1;
#X connect 98 0 60 0;
#X connect 99 0 63 0;
#X connect 100 0 66 0;
#X connect 101 0 57 0;
#X connect 102 0 54 0;
#X connect 103 0 73 0;
#X connect 104 0 77 0;
#X connect 105 0 81 0;
#X connect 106 0 85 0;
#X connect 107 0 89 0;
#X connect 108 0 109 0;
#X connect 109 0 110 0;
#X connect 110 0 222 0;
#X connect 111 0 112 0;
#X connect 112 0 113 0;
#X connect 113 0 222 0;
#X connect 114 0 115 0;
#X connect 115 0 116 0;
#X connect 116 0 222 0;
#X connect 117 0 118 0;
#X connect 118 0 119 0;
#X connect 119 0 222 0;
#X connect 120 0 121 0;
#X connect 121 0 122 0;
#X connect 122 0 222 0;
#X connect 123 0 126 0;
#X connect 124 0 128 0;
#X connect 124 0 132 0;
#X connect 124 0 136 0;
#X connect 124 0 140 0;
#X connect 124 0 149 0;
#X connect 125 0 124 0;
#X connect 126 0 152 0;
#X connect 127 0 144 0;
#X connect 128 0 129 0;
#X connect 129 0 130 0;
#X connect 130 0 153 0;
#X connect 131 0 145 0;
#X connect 132 0 133 0;
#X connect 133 0 134 0;
#X connect 134 0 154 0;
#X connect 135 0 146 0;
#X connect 136 0 137 0;
#X connect 137 0 138 0;
#X connect 138 0 155 0;
#X connect 139 0 147 0;
#X connect 140 0 141 0;
#X connect 141 0 142 0;
#X connect 142 0 156 0;
#X connect 143 0 148 0;
#X connect 144 0 157 0;
#X connect 145 0 158 0;
#X connect 146 0 159 0;
#X connect 147 0 160 0;
#X connect 148 0 161 0;
#X connect 149 0 123 0;
#X connect 150 0 149 1;
#X connect 150 0 128 1;
#X connect 150 0 132 1;
#X connect 150 0 136 1;
#X connect 150 0 140 1;
#X connect 150 0 151 0;
#X connect 151 0 126 1;
#X connect 151 0 130 1;
#X connect 151 0 134 1;
#X connect 151 0 138 1;
#X connect 151 0 142 1;
#X connect 152 0 127 0;
#X connect 153 0 131 0;
#X connect 154 0 135 0;
#X connect 155 0 139 0;
#X connect 156 0 143 0;
#X connect 157 0 108 0;
#X connect 158 0 111 0;
#X connect 159 0 114 0;
#X connect 160 0 117 0;
#X connect 161 0 120 0;
#X connect 163 0 162 0;
#X connect 163 0 162 1;
#X connect 164 0 163 1;
#X connect 165 0 162 0;
#X connect 165 0 162 1;
#X connect 166 0 165 1;
#X connect 167 0 162 0;
#X connect 167 0 162 1;
#X connect 168 0 167 1;
#X connect 169 0 170 0;
#X connect 170 0 171 0;
#X connect 171 0 223 0;
#X connect 172 0 173 0;
#X connect 173 0 174 0;
#X connect 174 0 223 0;
#X connect 175 0 176 0;
#X connect 176 0 177 0;
#X connect 177 0 223 0;
#X connect 178 0 179 0;
#X connect 179 0 180 0;
#X connect 180 0 223 0;
#X connect 181 0 182 0;
#X connect 182 0 183 0;
#X connect 183 0 223 0;
#X connect 184 0 187 0;
#X connect 185 0 189 0;
#X connect 185 0 193 0;
#X connect 185 0 197 0;
#X connect 185 0 201 0;
#X connect 185 0 210 0;
#X connect 186 0 185 0;
#X connect 187 0 224 0;
#X connect 188 0 205 0;
#X connect 189 0 190 0;
#X connect 190 0 191 0;
#X connect 191 0 225 0;
#X connect 192 0 206 0;
#X connect 193 0 194 0;
#X connect 194 0 195 0;
#X connect 195 0 226 0;
#X connect 196 0 207 0;
#X connect 197 0 198 0;
#X connect 198 0 199 0;
#X connect 199 0 227 0;
#X connect 200 0 208 0;
#X connect 201 0 202 0;
#X connect 202 0 203 0;
#X connect 203 0 228 0;
#X connect 204 0 209 0;
#X connect 205 0 217 0;
#X connect 206 0 216 0;
#X connect 207 0 215 0;
#X connect 208 0 218 0;
#X connect 209 0 219 0;
#X connect 210 0 184 0;
#X connect 211 0 210 1;
#X connect 211 0 189 1;
#X connect 211 0 193 1;
#X connect 211 0 197 1;
#X connect 211 0 201 1;
#X connect 211 0 212 0;
#X connect 212 0 187 1;
#X connect 212 0 191 1;
#X connect 212 0 195 1;
#X connect 212 0 199 1;
#X connect 212 0 203 1;
#X connect 213 0 162 0;
#X connect 213 0 162 1;
#X connect 214 0 213 1;
#X connect 215 0 175 0;
#X connect 216 0 172 0;
#X connect 217 0 169 0;
#X connect 218 0 178 0;
#X connect 219 0 181 0;
#X connect 220 0 165 0;
#X connect 221 0 163 0;
#X connect 222 0 167 0;
#X connect 223 0 213 0;
#X connect 224 0 188 0;
#X connect 225 0 192 0;
#X connect 226 0 196 0;
#X connect 227 0 200 0;
#X connect 228 0 204 0;
