#N canvas -8 -8 1366 685 12;
#X obj 41 29 noise~;
#X obj 210 651 dac~;
#X obj 361 161 vline~;
#X obj 79 393 *~;
#X floatatom 90 259 5 0 0 0 - - -;
#X obj 364 46 bng 15 250 50 0 empty empty empty 17 7 0 10 -262144 -1
-1;
#X obj 91 223 snapshot~;
#X msg 150 191 bang;
#X obj 90 151 vline~;
#X obj 162 515 lop~ 1000;
#X obj 58 77 lop~ 4000;
#X obj 375 518 lop~ 1500;
#X obj 203 164 metro 10;
#X obj 376 543 *~ 0.2;
#X obj 162 539 *~ 0.3;
#X msg 363 122 1 450 \, 0 150 550;
#X obj 72 314 bp~ 100 2;
#X msg 93 118 1000 350 \, 0 50 350;
#X obj 63 483 delwrite~ delayname 300;
#X obj 65 569 delread~ delayname 250;
#X obj 283 489 delwrite~ delayname1 250;
#X obj 285 573 delread~ delayname1 200;
#X connect 0 0 10 0;
#X connect 2 0 3 1;
#X connect 3 0 18 0;
#X connect 3 0 20 0;
#X connect 4 0 16 1;
#X connect 5 0 15 0;
#X connect 5 0 12 0;
#X connect 5 0 17 0;
#X connect 6 0 4 0;
#X connect 7 0 6 0;
#X connect 8 0 6 0;
#X connect 9 0 14 0;
#X connect 10 0 16 0;
#X connect 11 0 13 0;
#X connect 12 0 7 0;
#X connect 13 0 20 0;
#X connect 14 0 18 0;
#X connect 15 0 2 0;
#X connect 16 0 3 0;
#X connect 17 0 8 0;
#X connect 19 0 9 0;
#X connect 19 0 1 0;
#X connect 21 0 11 0;
#X connect 21 0 1 1;
